<svg width="274" height="262" viewBox="0 0 274 262" fill="none" xmlns="http://www.w3.org/2000/svg">
<path d="M137 0C119.009 0 101.194 3.47254 84.5724 10.2194C67.9508 16.9662 52.848 26.8551 40.1264 39.3216C14.4339 64.4988 0 98.6464 0 134.252C0 193.592 39.319 243.936 93.708 261.792C100.558 262.866 102.75 258.704 102.75 255.079V232.391C64.801 240.446 56.718 214.401 56.718 214.401C50.416 198.828 41.511 194.666 41.511 194.666C29.044 186.342 42.47 186.611 42.47 186.611C56.17 187.55 63.431 200.439 63.431 200.439C75.35 220.845 95.489 214.804 103.298 211.582C104.531 202.855 108.093 196.948 111.929 193.592C81.515 190.236 49.594 178.69 49.594 127.54C49.594 112.638 54.8 100.689 63.705 91.1573C62.335 87.801 57.54 73.8388 65.075 55.7147C65.075 55.7147 76.583 52.0899 102.75 69.4085C113.573 66.4549 125.355 64.9781 137 64.9781C148.645 64.9781 160.427 66.4549 171.25 69.4085C197.417 52.0899 208.925 55.7147 208.925 55.7147C216.46 73.8388 211.665 87.801 210.295 91.1573C219.2 100.689 224.406 112.638 224.406 127.54C224.406 178.824 192.348 190.101 161.797 193.458C166.729 197.619 171.25 205.809 171.25 218.294V255.079C171.25 258.704 173.442 263 180.429 261.792C234.818 243.802 274 193.592 274 134.252C274 116.622 270.456 99.1644 263.572 82.8762C256.687 66.5879 246.595 51.7881 233.874 39.3216C221.152 26.8551 206.049 16.9662 189.428 10.2194C172.806 3.47254 154.991 0 137 0Z" fill="#FF0004"/>
</svg>
